REM MD5 c09070e3d0ed93d433a488ad6c139f81
FILE "SuperLite 1500 Series - Reversi II (Japan).bin" BINARY
  TRACK 01 MODE2/2352
    INDEX 01 00:00:00
  TRACK 02 AUDIO
    INDEX 00 00:11:68
    INDEX 01 00:13:68
  TRACK 03 AUDIO
    INDEX 00 03:45:24
    INDEX 01 03:47:24
  TRACK 04 AUDIO
    INDEX 00 08:47:48
    INDEX 01 08:49:48
  TRACK 05 AUDIO
    INDEX 00 14:14:58
    INDEX 01 14:16:58
  TRACK 06 AUDIO
    INDEX 00 17:43:70
    INDEX 01 17:45:70
REM LEADOUT 20:56:01
